<svg width="37" height="20" viewBox="0 0 37 20" fill="none" xmlns="http://www.w3.org/2000/svg">
<g id="Group">
<g id="Group_2">
<g id="Group_3">
<path id="Vector" d="M6.5321 4.89558C6.64085 4.89558 6.74442 4.85266 6.82987 4.78023C7.98211 3.76624 9.47614 3.15195 11.1022 3.15195C12.5341 3.15195 13.8909 3.61602 15.0354 4.49589C15.6413 4.95996 16.488 4.95727 17.0343 4.41809C17.736 3.726 17.648 2.58594 16.9075 2.0092C15.2218 0.694771 13.2151 0 11.1022 0C7.88631 0 5.03547 1.63901 3.27992 4.14984C3.06242 4.46101 3.27992 4.89558 3.65278 4.89558H6.5321Z" fill="url(#paint0_linear_4955_8397)"/>
<path id="Vector_2" d="M24.3704 6.63195C23.762 6.03107 22.7987 6.05253 22.2187 6.68292C21.9132 7.01287 21.3384 7.75861 20.3492 9.04621C18.806 11.0554 16.2219 14.4139 15.2121 15.2562C14.2229 16.0797 13.0422 16.8443 11.1054 16.8443C9.1686 16.8443 7.44672 15.9859 6.23751 14.6205C6.14947 14.5212 6.02777 14.4622 5.89831 14.4622H3.24944C2.89471 14.4622 2.67203 14.8646 2.85846 15.1784C4.55446 18.0648 7.61761 19.9962 11.108 19.9962C14.0106 19.9962 15.8464 18.7757 17.123 17.7107C18.2985 16.7289 20.3596 14.0947 22.734 11.0071C23.4538 10.0709 24.1995 9.09986 24.4248 8.85575C25.0048 8.22536 24.9841 7.22747 24.3756 6.62659L24.3704 6.63195Z" fill="url(#paint1_linear_4955_8397)"/>
</g>
<path id="Vector_3" d="M36.9357 10.8515C37.2212 8.76269 35.8182 6.82957 33.8019 6.53377C31.7856 6.23797 29.9197 7.69151 29.6342 9.78034C29.3486 11.8692 30.7517 13.8023 32.7679 14.0981C34.7842 14.3939 36.6502 12.9403 36.9357 10.8515Z" fill="#004047"/>
<g id="Group_4">
<path id="Vector_4" d="M30.7639 15.1016C30.6551 15.1016 30.5516 15.1445 30.4661 15.2169C29.3139 16.2309 27.8198 16.8452 26.1938 16.8452C24.7619 16.8452 23.4051 16.3811 22.2606 15.5013C21.6547 15.0372 20.808 15.0399 20.2616 15.579C19.5599 16.2711 19.648 17.4112 20.3885 17.9879C22.0742 19.3024 24.0809 19.9998 26.1938 19.9998C29.4097 19.9998 32.2605 18.3608 34.0161 15.85C34.2336 15.5388 34.0161 15.1042 33.6432 15.1042H30.7639V15.1016Z" fill="url(#paint2_linear_4955_8397)"/>
<path id="Vector_5" d="M12.9251 13.3643C13.5336 13.9651 14.4968 13.9437 15.0768 13.3133C15.3823 12.9833 15.9571 12.2376 16.9463 10.95C18.4895 8.9408 21.0736 5.5823 22.0835 4.74C23.0726 3.91647 24.2533 3.15195 26.1901 3.15195C28.1269 3.15195 29.8488 4.01035 31.058 5.37575C31.146 5.475 31.2677 5.53402 31.3972 5.53402H34.0461C34.4008 5.53402 34.6235 5.13164 34.437 4.81779C32.741 1.93141 29.6779 0 26.1875 0C23.2849 0 21.4491 1.22054 20.1725 2.2855C18.997 3.2673 16.9359 5.90152 14.5615 8.98909C13.8417 9.92528 13.096 10.8964 12.8707 11.1405C12.2907 11.7708 12.3114 12.7687 12.9199 13.3696L12.9251 13.3643Z" fill="url(#paint3_linear_4955_8397)"/>
</g>
<path id="Vector_6" d="M4.37334 14.1709C3.45155 12.1992 1.90573 10.5978 0 9.64013C1.90314 8.68516 3.44896 7.0837 4.37334 5.10938C5.29513 7.08102 6.84095 8.68248 8.74668 9.64013C6.84354 10.5951 5.29772 12.1966 4.37334 14.1709Z" fill="#008F9D"/>
</g>
<g id="Group_5">
<g id="Group_6">
<path id="Vector_7" d="M6.5321 4.89558C6.64085 4.89558 6.74442 4.85266 6.82987 4.78023C7.98211 3.76624 9.47614 3.15195 11.1022 3.15195C12.5341 3.15195 13.8909 3.61602 15.0354 4.49589C15.6413 4.95996 16.488 4.95727 17.0343 4.41809C17.736 3.726 17.648 2.58594 16.9075 2.0092C15.2218 0.694771 13.2151 0 11.1022 0C7.88631 0 5.03547 1.63901 3.27992 4.14984C3.06242 4.46101 3.27992 4.89558 3.65278 4.89558H6.5321Z" fill="url(#paint4_linear_4955_8397)"/>
<path id="Vector_8" d="M24.3704 6.63195C23.762 6.03107 22.7987 6.05253 22.2187 6.68292C21.9132 7.01287 21.3384 7.75861 20.3492 9.04621C18.806 11.0554 16.2219 14.4139 15.2121 15.2562C14.2229 16.0797 13.0422 16.8443 11.1054 16.8443C9.1686 16.8443 7.44672 15.9859 6.23751 14.6205C6.14947 14.5212 6.02777 14.4622 5.89831 14.4622H3.24944C2.89471 14.4622 2.67203 14.8646 2.85846 15.1784C4.55446 18.0648 7.61761 19.9962 11.108 19.9962C14.0106 19.9962 15.8464 18.7757 17.123 17.7107C18.2985 16.7289 20.3596 14.0947 22.734 11.0071C23.4538 10.0709 24.1995 9.09986 24.4248 8.85575C25.0048 8.22536 24.9841 7.22747 24.3756 6.62659L24.3704 6.63195Z" fill="url(#paint5_linear_4955_8397)"/>
</g>
<path id="Vector_9" d="M36.9357 10.8515C37.2212 8.76269 35.8182 6.82957 33.8019 6.53377C31.7856 6.23797 29.9197 7.69151 29.6342 9.78034C29.3486 11.8692 30.7517 13.8023 32.7679 14.0981C34.7842 14.3939 36.6502 12.9403 36.9357 10.8515Z" fill="#004047"/>
<g id="Group_7">
<path id="Vector_10" d="M30.7639 15.1016C30.6551 15.1016 30.5516 15.1445 30.4661 15.2169C29.3139 16.2309 27.8198 16.8452 26.1938 16.8452C24.7619 16.8452 23.4051 16.3811 22.2606 15.5013C21.6547 15.0372 20.808 15.0399 20.2616 15.579C19.5599 16.2711 19.648 17.4112 20.3885 17.9879C22.0742 19.3024 24.0809 19.9998 26.1938 19.9998C29.4097 19.9998 32.2605 18.3608 34.0161 15.85C34.2336 15.5388 34.0161 15.1042 33.6432 15.1042H30.7639V15.1016Z" fill="url(#paint6_linear_4955_8397)"/>
<path id="Vector_11" d="M12.9251 13.3643C13.5336 13.9651 14.4968 13.9437 15.0768 13.3133C15.3823 12.9833 15.9571 12.2376 16.9463 10.95C18.4895 8.9408 21.0736 5.5823 22.0835 4.74C23.0726 3.91647 24.2533 3.15195 26.1901 3.15195C28.1269 3.15195 29.8488 4.01035 31.058 5.37575C31.146 5.475 31.2677 5.53402 31.3972 5.53402H34.0461C34.4008 5.53402 34.6235 5.13164 34.437 4.81779C32.741 1.93141 29.6779 0 26.1875 0C23.2849 0 21.4491 1.22054 20.1725 2.2855C18.997 3.2673 16.9359 5.90152 14.5615 8.98909C13.8417 9.92528 13.096 10.8964 12.8707 11.1405C12.2907 11.7708 12.3114 12.7687 12.9199 13.3696L12.9251 13.3643Z" fill="url(#paint7_linear_4955_8397)"/>
</g>
<path id="Vector_12" d="M4.37334 14.1709C3.45155 12.1992 1.90573 10.5978 0 9.64013C1.90314 8.68516 3.44896 7.0837 4.37334 5.10938C5.29513 7.08102 6.84095 8.68248 8.74668 9.64013C6.84354 10.5951 5.29772 12.1966 4.37334 14.1709Z" fill="#008D9C"/>
</g>
</g>
<defs>
<linearGradient id="paint0_linear_4955_8397" x1="3.19448" y1="2.44645" x2="17.5159" y2="2.44645" gradientUnits="userSpaceOnUse">
<stop offset="0.11" stop-color="white"/>
<stop offset="1" stop-color="#008F9D"/>
</linearGradient>
<linearGradient id="paint1_linear_4955_8397" x1="2.78596" y1="13.0968" x2="24.8417" y2="13.0968" gradientUnits="userSpaceOnUse">
<stop offset="0.06" stop-color="white"/>
<stop offset="1" stop-color="#004047"/>
</linearGradient>
<linearGradient id="paint2_linear_4955_8397" x1="34.1015" y1="17.5507" x2="19.78" y2="17.5507" gradientUnits="userSpaceOnUse">
<stop offset="0.11" stop-color="white"/>
<stop offset="1" stop-color="#004047"/>
</linearGradient>
<linearGradient id="paint3_linear_4955_8397" x1="36.3687" y1="6.89941" x2="14.3129" y2="6.89941" gradientUnits="userSpaceOnUse">
<stop offset="0.08" stop-color="white"/>
<stop offset="1" stop-color="#008F9D"/>
</linearGradient>
<linearGradient id="paint4_linear_4955_8397" x1="3.19448" y1="2.44645" x2="17.5159" y2="2.44645" gradientUnits="userSpaceOnUse">
<stop offset="0.11" stop-color="white"/>
<stop offset="1" stop-color="#008D9C"/>
</linearGradient>
<linearGradient id="paint5_linear_4955_8397" x1="2.78596" y1="13.0968" x2="24.8417" y2="13.0968" gradientUnits="userSpaceOnUse">
<stop offset="0.06" stop-color="white"/>
<stop offset="1" stop-color="#004047"/>
</linearGradient>
<linearGradient id="paint6_linear_4955_8397" x1="34.1015" y1="17.5507" x2="19.78" y2="17.5507" gradientUnits="userSpaceOnUse">
<stop offset="0.11" stop-color="white"/>
<stop offset="1" stop-color="#004047"/>
</linearGradient>
<linearGradient id="paint7_linear_4955_8397" x1="36.3687" y1="6.89941" x2="14.3129" y2="6.89941" gradientUnits="userSpaceOnUse">
<stop offset="0.08" stop-color="white"/>
<stop offset="1" stop-color="#008D9C"/>
</linearGradient>
</defs>
</svg>
