<svg width="24" height="24" viewBox="0 0 24 24" fill="none" xmlns="http://www.w3.org/2000/svg">
<g id="close_fullscreen">
<mask id="mask0_4959_10737" style="mask-type:alpha" maskUnits="userSpaceOnUse" x="0" y="0" width="24" height="24">
<rect id="Bounding box" width="24" height="24" fill="#D9D9D9"/>
</mask>
<g mask="url(#mask0_4959_10737)">
<path id="close_fullscreen_2" d="M10.4991 14.5443L4.06061 20.9828C3.92211 21.1211 3.74969 21.1887 3.54336 21.1856C3.33703 21.1824 3.16461 21.1116 3.02611 20.9731C2.88761 20.8346 2.81836 20.66 2.81836 20.4493C2.81836 20.2386 2.88761 20.0651 3.02611 19.9288L9.45486 13.5001H5.24911C5.03661 13.5001 4.85853 13.4281 4.71486 13.2843C4.57103 13.1405 4.49911 12.9623 4.49911 12.7498C4.49911 12.5371 4.57103 12.3591 4.71486 12.2156C4.85853 12.0719 5.03661 12.0001 5.24911 12.0001H11.0954C11.3514 12.0001 11.566 12.0866 11.7394 12.2598C11.9125 12.4331 11.9991 12.6478 11.9991 12.9038V18.7501C11.9991 18.9626 11.9272 19.1406 11.7834 19.2843C11.6395 19.4281 11.4614 19.5001 11.2489 19.5001C11.0362 19.5001 10.8581 19.4281 10.7146 19.2843C10.5709 19.1406 10.4991 18.9626 10.4991 18.7501V14.5443ZM14.5434 10.5001H18.7491C18.9616 10.5001 19.1397 10.572 19.2834 10.7158C19.4272 10.8596 19.4991 11.0378 19.4991 11.2503C19.4991 11.463 19.4272 11.6411 19.2834 11.7846C19.1397 11.9282 18.9616 12.0001 18.7491 12.0001H12.9029C12.6469 12.0001 12.4322 11.9135 12.2589 11.7403C12.0857 11.567 11.9991 11.3523 11.9991 11.0963V5.25006C11.9991 5.03756 12.071 4.85948 12.2149 4.71581C12.3587 4.57198 12.5369 4.50006 12.7494 4.50006C12.962 4.50006 13.1401 4.57198 13.2836 4.71581C13.4273 4.85948 13.4991 5.03756 13.4991 5.25006V9.45581L19.9376 3.01731C20.0739 2.87898 20.2474 2.80981 20.4581 2.80981C20.6688 2.80981 20.8434 2.87898 20.9819 3.01731C21.1202 3.15581 21.1894 3.3304 21.1894 3.54106C21.1894 3.75173 21.1202 3.92523 20.9819 4.06156L14.5434 10.5001Z" fill="#1C1B1F"/>
</g>
</g>
</svg>
